HIERARCHY
ROOT root
{
	OFFSET 0.00 0.00 0.00
	CHANNELS 6 Xposition Yposition Zposition Xrotation Yrotation Zrotation
	JOINT back1
	{
		OFFSET 4.33070 0.00000 0.00000
		CHANNELS 3 Xrotation Yrotation Zrotation
		JOINT back2
		{
			OFFSET 4.72440 0.00000 0.00000
			CHANNELS 3 Xrotation Yrotation Zrotation
			JOINT back3
			{
				OFFSET 4.72440 0.00000 0.00000
				CHANNELS 3 Xrotation Yrotation Zrotation
				JOINT back4
				{
					OFFSET 4.72440 0.00000 0.00000
					CHANNELS 3 Xrotation Yrotation Zrotation
					JOINT neck1
					{
						OFFSET 0.00000 0.00000 0.00000
						CHANNELS 3 Xrotation Yrotation Zrotation
						JOINT neck2
						{
							OFFSET 3.48947 0.00000 0.61529
							CHANNELS 3 Xrotation Yrotation Zrotation
							JOINT neck3
							{
								OFFSET 3.32961 0.00000 1.21188
								CHANNELS 3 Xrotation Yrotation Zrotation
								JOINT head
								{
									OFFSET 3.06859 0.00000 1.77165
									CHANNELS 3 Xrotation Yrotation Zrotation
									JOINT Mouth1
									{
										OFFSET 3.87719 0.00000 0.68365
										CHANNELS 3 Xrotation Yrotation Zrotation
										End Site
										{
											OFFSET 3.87719 0.00000 0.68365
										}
									}
									JOINT Mouth2
									{
										OFFSET 3.87719 0.00000 0.68365
										CHANNELS 3 Xrotation Yrotation Zrotation
										End Site
										{
											OFFSET 3.87719 0.00000 0.68365
										}
									}
								}
							}
						}
					}
					JOINT L_shoulde
					{
						OFFSET 0.00000 3.14960 0.00000
						CHANNELS 3 Xrotation Yrotation Zrotation
						JOINT L_arm
						{
							OFFSET 1.96850 0.00000 -3.40954
							CHANNELS 3 Xrotation Yrotation Zrotation
							JOINT L_forearm
							{
								OFFSET -2.01980 0.00000 -5.54935
								CHANNELS 3 Xrotation Yrotation Zrotation
								JOINT L_hand
								{
									OFFSET -0.00001 0.00000 -7.87400
									CHANNELS 3 Xrotation Yrotation Zrotation
									JOINT L_finger
									{
										OFFSET 0.76422 0.00000 -2.85214
										CHANNELS 3 Xrotation Yrotation Zrotation
										End Site
										{
											OFFSET 1.67033 0.00000 -1.67033
										}
									}
								}
							}
						}
					}
					JOINT R_shoulde
					{
						OFFSET 0.00000 -3.14960 0.00000
						CHANNELS 3 Xrotation Yrotation Zrotation
						JOINT R_arm
						{
							OFFSET 1.96850 0.00000 -3.40954
							CHANNELS 3 Xrotation Yrotation Zrotation
							JOINT R_forearm
							{
								OFFSET -2.01980 0.00000 -5.54935
								CHANNELS 3 Xrotation Yrotation Zrotation
								JOINT r_hand
								{
									OFFSET -0.00001 0.00000 -7.87400
									CHANNELS 3 Xrotation Yrotation Zrotation
									JOINT r_finger
									{
										OFFSET 0.76422 0.00000 -2.85214
										CHANNELS 3 Xrotation Yrotation Zrotation
										End Site
										{
											OFFSET 1.67033 0.00000 -1.67033
										}
									}
								}
							}
						}
					}
				}
			}
		}
	}
	JOINT L_hip
	{
		OFFSET -1.96850 2.95275 -2.36220
		CHANNELS 3 Xrotation Yrotation Zrotation
		JOINT L_leg
		{
			OFFSET 1.02548 0.00000 -5.81578
			CHANNELS 3 Xrotation Yrotation Zrotation
			JOINT L_foot
			{
				OFFSET -5.06131 0.00000 -6.03183
				CHANNELS 3 Xrotation Yrotation Zrotation
				JOINT L_toe
				{
					OFFSET 0.00000 0.00000 -4.72440
					CHANNELS 3 Xrotation Yrotation Zrotation
					End Site
					{
						OFFSET 1.50796 0.00000 -1.26533
					}
				}
			}
		}
	}
	JOINT R_hip
	{
		OFFSET -1.96850 -2.95275 -2.36220
		CHANNELS 3 Xrotation Yrotation Zrotation
		JOINT R_leg
		{
			OFFSET 1.02548 0.00000 -5.81578
			CHANNELS 3 Xrotation Yrotation Zrotation
			JOINT R_foot
			{
				OFFSET -5.06131 0.00000 -6.03183
				CHANNELS 3 Xrotation Yrotation Zrotation
				JOINT R_toe
				{
					OFFSET 0.00000 0.00000 -4.72440
					CHANNELS 3 Xrotation Yrotation Zrotation
					End Site
					{
						OFFSET 1.50796 0.00000 -1.26533
					}
				}
			}
		}
	}
	JOINT W1
	{
		OFFSET -3.54330 0.00000 0.00000
		CHANNELS 3 Xrotation Yrotation Zrotation
		JOINT W2
		{
			OFFSET -3.03679 0.00000 -3.61910
			CHANNELS 3 Xrotation Yrotation Zrotation
			JOINT W3
			{
				OFFSET -2.27759 0.00000 -2.71433
				CHANNELS 3 Xrotation Yrotation Zrotation
				JOINT W4
				{
					OFFSET -2.27759 0.00000 -2.71433
					CHANNELS 3 Xrotation Yrotation Zrotation
					End Site
					{
						OFFSET -2.53065 0.00000 -3.01592
					}
				}
			}
		}
	}
}
MOTION
Frames: 6
Frame Time: 0.008333
 1.1027 21.0027 73.7018 -96.5251 1.1872 -65.0290 0.5156 7.7506 -4.3774 0.8468 7.8018 -8.4690 -0.2265 -1.4762 -4.5604 -0.4993 2.2698 -5.2252 -3.0526 -12.6399 -1.1301 -1.5524 8.0001 -6.0490 6.3445 1.7826 -14.1698 9.4216 -3.4522 -2.9723 -0.0000 0.0000 -0.0000 -0.0000 0.0000 -0.0000 9.9223 -5.0146 -11.6691 -5.2404 -12.9165 19.1611 -0.0000 -20.8934 -0.0000 -0.0000 15.8229 0.0000 0.0000 -20.1579 0.0000 -7.2641 -0.1995 -13.9159 20.0435 13.0720 19.8143 0.0000 -5.0086 0.0000 -0.0000 23.2786 -0.0000 -0.0000 -25.6073 -0.0000 4.5607 -5.3262 8.0277 0.0000 -5.8836 0.0000 0.0000 1.1163 -0.0000 -0.0000 -5.1373 -0.0000 -11.4664 -24.4282 -23.9531 0.0000 32.7338 -0.0000 -0.0000 -8.9803 -0.0000 -0.0000 20.2657 0.0000 -5.1285 6.2784 -12.3522 9.2574 -8.6278 25.1463 -8.7319 24.2830 -6.9648 27.8890 8.2667 -4.4110
 1.1922 21.0198 73.8858 -96.4880 1.1425 -64.7646 0.5171 7.8534 -4.7454 0.9178 7.6975 -8.6947 -0.2082 -1.6195 -4.5538 -0.5136 1.9687 -5.1322 -3.1068 -12.2285 -1.9601 -1.8169 7.6888 -5.4995 6.5708 1.7945 -14.5408 9.1822 -3.5136 -2.8718 -0.0000 0.0000 -0.0000 -0.0000 0.0000 -0.0000 9.1059 -4.1987 -11.4956 -4.7181 -12.4219 18.9771 0.0000 -21.0059 -0.0000 -0.0000 15.3157 -0.0000 -0.0000 -20.4695 -0.0000 -7.6804 -1.4639 -16.3059 19.4800 15.9115 20.5987 0.0000 -6.6797 0.0000 0.0000 28.1093 0.0000 -0.0000 -23.5778 -0.0000 4.5441 -5.0687 7.8640 0.0000 -5.5936 0.0000 -0.0000 1.4626 0.0000 -0.0000 -5.2864 -0.0000 -10.8423 -24.7567 -24.6668 -0.0000 30.3483 0.0000 0.0000 -9.7323 -0.0000 0.0000 20.1203 0.0000 -5.2286 6.7335 -12.7216 9.6122 -8.4637 26.1839 -9.3953 24.8546 -6.5910 27.8839 8.4956 -4.5398
 1.2798 21.0286 74.0612 -96.4096 1.0377 -64.5210 0.5447 7.8510 -5.1921 0.9100 7.6042 -8.8492 -0.2991 -1.6494 -4.4594 -0.4254 1.7463 -5.0967 -3.1216 -11.9915 -2.6872 -1.9995 7.3913 -5.0918 6.7997 1.9059 -14.9988 8.8414 -3.4992 -2.2173 -0.0000 0.0000 -0.0000 -0.0000 0.0000 -0.0000 8.4429 -3.4919 -11.8916 -4.1454 -12.0241 19.1726 0.0000 -21.2525 0.0000 0.0000 15.2100 -0.0000 0.0000 -20.9308 0.0000 -8.2632 -2.8552 -18.5594 18.9904 18.5194 21.0605 0.0000 -8.4614 -0.0000 -0.0000 33.7894 0.0000 -0.0000 -21.7132 -0.0000 4.4139 -4.7838 7.6394 -0.0000 -5.4206 -0.0000 0.0000 1.9528 -0.0000 0.0000 -5.8293 0.0000 -10.2172 -25.0242 -25.2493 0.0000 27.7101 0.0000 0.0000 -10.1429 0.0000 0.0000 20.2043 -0.0000 -5.0486 7.0833 -12.6759 9.3621 -8.6232 26.2185 -9.5705 25.4873 -5.6579 27.7105 8.6978 -4.3424
 1.3666 21.0283 74.2306 -96.2986 0.8346 -64.3563 0.4337 7.8706 -5.5484 0.9538 7.4106 -9.0045 -0.3617 -1.6365 -4.4087 -0.3523 1.5556 -4.9632 -3.1261 -11.8105 -3.3512 -2.1342 7.1846 -4.8039 6.8312 1.9505 -15.2588 8.6967 -3.3755 -2.1293 -0.0000 0.0000 -0.0000 -0.0000 0.0000 -0.0000 7.8030 -2.8180 -12.1403 -3.7173 -11.6775 19.2564 0.0000 -21.3514 0.0000 -0.0000 14.9617 -0.0000 -0.0000 -21.2166 -0.0000 -9.0878 -4.1002 -20.6923 18.6816 20.7568 21.1530 -0.0000 -10.3357 0.0000 0.0000 40.4411 -0.0000 -0.0000 -19.6332 -0.0000 4.1787 -4.4692 7.5990 0.0000 -5.2129 0.0000 0.0000 2.2203 -0.0000 -0.0000 -6.0781 -0.0000 -9.7210 -25.2640 -25.8689 -0.0000 24.8569 0.0000 -0.0000 -9.9365 -0.0000 -0.0000 19.9013 0.0000 -5.0306 7.6124 -12.8550 10.4161 -8.3610 28.2258 -10.3123 26.2717 -6.2020 27.6151 8.8168 -4.5011
 1.4518 21.0212 74.3884 -96.1850 0.5562 -64.1903 0.2983 7.8032 -5.9031 0.9580 7.3866 -9.1706 -0.3313 -1.5825 -4.3359 -0.2431 1.4888 -4.7457 -3.2344 -12.0112 -4.3078 -2.4838 7.0934 -4.0337 7.3522 2.0891 -15.8475 8.1994 -3.2803 -1.3019 -0.0000 0.0000 -0.0000 -0.0000 0.0000 -0.0000 7.3507 -2.7185 -13.2032 -3.4325 -11.1598 20.0516 0.0000 -21.4455 0.0000 0.0000 14.8847 -0.0000 -0.0000 -21.5219 -0.0000 -10.3654 -5.3865 -22.5769 18.8823 22.5051 20.4743 0.0000 -12.1418 0.0000 -0.0000 47.8769 0.0000 -0.0000 -17.6426 -0.0000 3.8310 -4.0797 7.4895 -0.0000 -5.0584 0.0000 -0.0000 2.4130 0.0000 0.0000 -6.3854 0.0000 -9.2755 -25.4057 -26.3724 0.0000 21.8349 0.0000 -0.0000 -9.2232 -0.0000 -0.0000 19.9658 -0.0000 -5.0635 8.0664 -13.0965 10.5721 -8.5270 29.0424 -10.2164 27.0176 -5.7248 26.7450 8.9118 -5.0256
 1.5358 21.0065 74.5446 -96.0193 0.2396 -64.1312 0.0776 7.6640 -6.1582 0.9571 7.2620 -9.3265 -0.2818 -1.4539 -4.3456 -0.1753 1.2989 -4.5499 -3.2814 -11.8982 -5.0673 -2.6938 6.9180 -3.6083 7.3147 2.1763 -16.0515 8.2345 -3.4070 -1.4403 -0.0000 0.0000 -0.0000 -0.0000 0.0000 -0.0000 6.9929 -2.2813 -13.7839 -3.3203 -10.7796 20.4294 0.0000 -21.4695 0.0000 0.0000 14.7450 -0.0000 0.0000 -21.7453 0.0000 -11.5353 -6.2269 -24.1632 19.2503 23.4571 19.4773 -0.0000 -13.3907 0.0000 -0.0000 55.4082 -0.0000 -0.0000 -15.7995 0.0000 3.4272 -3.6586 7.5757 -0.0000 -4.9227 -0.0000 0.0000 2.5409 -0.0000 0.0000 -6.5774 0.0000 -8.8388 -25.5591 -26.6783 0.0000 18.6289 -0.0000 -0.0000 -7.7553 0.0000 -0.0000 19.7572 0.0000 -5.2698 8.5497 -13.3287 10.7624 -8.8587 29.7705 -10.4896 27.8310 -5.2872 26.9804 9.0170 -4.8631
